<?xml version="1.0" encoding="UTF-8"?>
<svg id="_Слой_2" data-name="Слой 2" xmlns="http://www.w3.org/2000/svg" xmlns:xlink="http://www.w3.org/1999/xlink" viewBox="0 0 542.27 710.15">
  <defs>
    <style>
      .cls-1 {
        fill: #1c1814;
      }

      .cls-1, .cls-2, .cls-3, .cls-4, .cls-5, .cls-6, .cls-7, .cls-8, .cls-9, .cls-10, .cls-11, .cls-12, .cls-13, .cls-14 {
        stroke-width: 0px;
      }

      .cls-2 {
        fill: url(#linear-gradient);
      }

      .cls-3 {
        fill: url(#_Безымянный_градиент_4);
      }

      .cls-15 {
        stroke: #fff;
        stroke-miterlimit: 10;
      }

      .cls-15, .cls-5 {
        fill: none;
      }

      .cls-4 {
        fill: #030303;
      }

      .cls-6, .cls-16 {
        fill: #fff;
      }

      .cls-17 {
        letter-spacing: 0em;
      }

      .cls-7 {
        fill: url(#linear-gradient-2);
      }

      .cls-8 {
        fill: #f3daba;
      }

      .cls-9 {
        fill: url(#linear-gradient-3);
      }

      .cls-10 {
        fill: #c5c5c5;
      }

      .cls-16 {
        font-family: ALSSchlangesans, ALSSchlangesans;
        font-size: 12px;
      }

      .cls-18 {
        letter-spacing: -.01em;
      }

      .cls-11 {
        fill: #212121;
      }

      .cls-12 {
        fill: url(#linear-gradient-4);
      }

      .cls-13 {
        fill: #2d2927;
      }

      .cls-14 {
        fill: #151414;
      }
    </style>
    <linearGradient id="linear-gradient" x1="-7749.96" y1="8008.65" x2="-7721.29" y2="8008.65" gradientTransform="translate(-7737.49 7750.24) rotate(90) scale(1 -1)" gradientUnits="userSpaceOnUse">
      <stop offset="0" stop-color="#ffe5c2"/>
      <stop offset=".05" stop-color="#e9cfac"/>
      <stop offset=".12" stop-color="#ceb592"/>
      <stop offset=".2" stop-color="#b7a07c"/>
      <stop offset=".29" stop-color="#a6906c"/>
      <stop offset=".41" stop-color="#9a8460"/>
      <stop offset=".57" stop-color="#937d59"/>
      <stop offset="1" stop-color="#927c58"/>
    </linearGradient>
    <linearGradient id="linear-gradient-2" x1="-7068.23" y1="8008.62" x2="-7040.37" y2="8008.62" gradientTransform="translate(-7737.49 7750.24) rotate(90) scale(1 -1)" gradientUnits="userSpaceOnUse">
      <stop offset="0" stop-color="#927c58"/>
      <stop offset=".43" stop-color="#937d59"/>
      <stop offset=".59" stop-color="#9a8460"/>
      <stop offset=".71" stop-color="#a6906c"/>
      <stop offset=".8" stop-color="#b7a07c"/>
      <stop offset=".88" stop-color="#ceb592"/>
      <stop offset=".95" stop-color="#e9cfac"/>
      <stop offset="1" stop-color="#ffe5c2"/>
    </linearGradient>
    <linearGradient id="linear-gradient-3" x1="-7747.17" y1="7752.8" x2="-7043.15" y2="7752.8" gradientTransform="translate(-7737.49 7750.24) rotate(90) scale(1 -1)" gradientUnits="userSpaceOnUse">
      <stop offset="0" stop-color="#e6cfb1"/>
      <stop offset=".48" stop-color="#ffe5c2"/>
      <stop offset=".68" stop-color="#fae0be"/>
      <stop offset=".92" stop-color="#ecd4b5"/>
      <stop offset="1" stop-color="#e6cfb1"/>
    </linearGradient>
    <linearGradient id="linear-gradient-4" y1="8264.44" y2="8264.44" xlink:href="#linear-gradient-3"/>
    <linearGradient id="_Безымянный_градиент_4" data-name="Безымянный градиент 4" x1="269.41" y1="13.84" x2="272.87" y2="13.84" gradientUnits="userSpaceOnUse">
      <stop offset="0" stop-color="#4c423a"/>
      <stop offset="1" stop-color="#302b26"/>
    </linearGradient>
  </defs>
  <g id="background">
    <g>
      <g>
        <g>
          <g>
            <path class="cls-5" d="m28.1,709.79c.74.06,1.49.08,2.25.08h481.57c.75,0,1.5-.03,2.25-.08.21-.02.42-.04.63-.06,1.26-.12,2.51-.32,3.72-.59.23-.05.46-.1.7-.17.17-.04.34-.08.52-.13,2.15-.58,4.21-1.39,6.14-2.41.21-.1.42-.21.62-.33.43-.23.84-.47,1.24-.73.19-.11.38-.23.57-.36.2-.12.39-.25.58-.39.54-.36,1.07-.75,1.58-1.16.23-.18.45-.35.66-.54.34-.27.67-.57,1-.86.19-.18.38-.35.57-.54.33-.31.66-.64.98-.97,0,0,.03-.02.04-.04.64-.67,1.24-1.36,1.82-2.1,0-.02.02-.03.04-.05.86-1.09,1.64-2.24,2.34-3.44.24-.4.47-.82.69-1.23.03-.06.07-.13.1-.19.19-.35.36-.71.52-1.08.2-.43.4-.86.57-1.3.19-.45.35-.89.51-1.34.16-.44.31-.88.44-1.33,0-.02,0-.05.02-.07.14-.45.26-.9.37-1.36.12-.46.22-.94.31-1.41.1-.48.19-.97.25-1.45.06-.43.12-.84.16-1.27,0-.06,0-.14.02-.2.07-.7.11-1.39.13-2.1,0-.26,0-.51,0-.77V30.35c0-.26,0-.51,0-.77-.02-.71-.06-1.4-.13-2.1,0-.07-.02-.14-.02-.2-.04-.43-.09-.85-.16-1.27-.07-.48-.15-.97-.25-1.45-.08-.47-.19-.95-.31-1.41-.11-.45-.23-.91-.37-1.36,0-.03-.02-.06-.02-.07-.13-.45-.28-.89-.44-1.33-.16-.45-.33-.89-.51-1.34-.17-.44-.36-.87-.57-1.3-.16-.36-.33-.72-.52-1.08-.04-.07-.07-.13-.1-.19-.21-.42-.45-.84-.69-1.24-.7-1.21-1.48-2.36-2.34-3.44-.02-.02-.03-.03-.04-.05-.58-.73-1.18-1.43-1.82-2.1,0-.02-.03-.03-.04-.04-.32-.33-.64-.67-.98-.97-.19-.19-.37-.36-.57-.54-.33-.3-.66-.59-1-.86-.21-.19-.43-.36-.66-.54-.51-.41-1.04-.8-1.58-1.16-.19-.14-.39-.27-.58-.39-.19-.13-.38-.25-.57-.36-.41-.26-.82-.5-1.24-.73-.2-.12-.41-.23-.62-.33-1.93-1.02-3.98-1.84-6.14-2.41-.18-.05-.35-.09-.52-.13-.23-.07-.46-.12-.7-.17-1.22-.28-2.46-.47-3.72-.59-.21-.02-.42-.04-.63-.06-.74-.06-1.49-.08-2.25-.08H30.35c-.75,0-1.5.03-2.25.08-.23.02-.47.04-.71.07-1.24.12-2.45.32-3.64.58-.24.05-.47.1-.71.17-.2.05-.42.1-.61.16-2.12.58-4.14,1.38-6.04,2.39-.21.11-.42.22-.62.33-.84.46-1.64.97-2.43,1.5-.18.13-.36.26-.55.39-.33.24-.67.49-.99.75-.85.67-1.66,1.38-2.44,2.14-.18.17-.34.33-.51.51-.09.08-.18.18-.25.26-.08.08-.17.17-.23.25-.26.26-.5.53-.73.81-.22.25-.45.52-.66.79-.09.11-.19.22-.27.33-.06.07-.11.13-.16.2-.22.29-.45.58-.66.87,0,.03-.03.05-.06.07-.25.35-.49.72-.73,1.09-.02.04-.05.07-.07.11-.23.36-.45.72-.66,1.1-.24.4-.46.82-.69,1.24-.04.06-.07.13-.1.19-.19.35-.36.71-.52,1.08-.2.43-.39.86-.57,1.3-.19.44-.35.88-.51,1.34-.48,1.35-.86,2.74-1.13,4.17-.1.48-.19.97-.25,1.45-.07.43-.12.84-.16,1.27,0,.06,0,.14-.02.2-.03.21-.05.44-.05.66-.03.27-.05.54-.06.81-.03.46-.04.93-.04,1.4v649.45c0,.47,0,.94.04,1.4,0,.27.03.54.06.81,0,.22.02.45.05.66,0,.06.02.14.02.2.04.43.09.84.16,1.27.07.48.15.97.25,1.45.27,1.43.65,2.82,1.13,4.17.16.45.32.9.51,1.34.18.44.36.87.57,1.3.16.36.33.72.52,1.08.04.06.07.13.1.19.22.42.45.84.69,1.23.2.37.43.73.66,1.1.03.04.06.07.07.11.24.36.48.73.73,1.09.03.03.05.05.06.07.21.3.44.58.66.87.05.07.1.14.16.2.08.11.18.22.27.33.21.27.44.54.66.79.23.28.47.55.73.81.06.08.15.17.23.25.07.08.16.18.25.26.17.18.33.34.51.51.78.76,1.59,1.48,2.44,2.14.32.26.66.51.99.75.19.13.37.26.55.39.79.54,1.6,1.04,2.43,1.5.2.11.41.22.62.33,1.9,1,3.93,1.81,6.04,2.39.19.06.41.11.61.16.23.06.46.12.71.17,1.19.27,2.4.46,3.64.58.23.03.47.05.71.06Zm2.25-2.7c-15.05,0-27.29-12.24-27.29-27.29V30.35C3.06,15.3,15.3,3.06,30.35,3.06h481.57c15.05,0,27.29,12.24,27.29,27.29v649.45c0,15.05-12.24,27.29-27.29,27.29H30.35Z"/>
            <path class="cls-8" d="m30.35,710.15h481.57c16.73,0,30.35-13.62,30.35-30.35V30.35c0-16.74-13.62-30.35-30.35-30.35H30.35C13.62,0,0,13.61,0,30.35v649.45c0,16.73,13.62,30.35,30.35,30.35Zm0-.28c-.75,0-1.5-.03-2.25-.08-.23-.02-.47-.04-.71-.06-1.24-.12-2.45-.32-3.64-.58-.24-.05-.47-.1-.71-.17-.2-.05-.42-.1-.61-.16-2.12-.58-4.14-1.38-6.04-2.39-.21-.11-.42-.22-.62-.33-.84-.46-1.64-.97-2.43-1.5-.18-.13-.36-.26-.55-.39-.33-.24-.67-.49-.99-.75-.85-.67-1.66-1.38-2.44-2.14-.18-.17-.34-.33-.51-.51-.09-.08-.18-.18-.25-.26-.08-.08-.17-.17-.23-.25-.26-.26-.5-.53-.73-.81-.22-.25-.45-.52-.66-.79-.09-.11-.19-.22-.27-.33-.06-.06-.11-.13-.16-.2-.22-.29-.45-.58-.66-.87,0-.03-.03-.05-.06-.07-.25-.35-.49-.72-.73-1.09-.02-.04-.05-.07-.07-.11-.23-.36-.45-.72-.66-1.1-.24-.4-.46-.82-.69-1.23-.04-.06-.07-.13-.1-.19-.19-.35-.36-.71-.52-1.08-.2-.43-.39-.86-.57-1.3-.19-.44-.35-.88-.51-1.34-.48-1.35-.86-2.74-1.13-4.17-.1-.48-.19-.97-.25-1.45-.07-.43-.12-.84-.16-1.27,0-.06,0-.14-.02-.2-.03-.21-.05-.44-.05-.66-.03-.27-.05-.54-.06-.81-.03-.46-.04-.93-.04-1.4V30.35c0-.47,0-.94.04-1.4,0-.27.03-.54.06-.81,0-.22.02-.45.05-.66,0-.07.02-.14.02-.2.04-.43.09-.85.16-1.27.07-.48.15-.97.25-1.45.27-1.43.65-2.82,1.13-4.17.16-.46.32-.9.51-1.34.18-.44.36-.87.57-1.3.16-.36.33-.72.52-1.08.04-.07.07-.13.1-.19.22-.42.45-.84.69-1.24.2-.37.43-.73.66-1.1.03-.04.06-.07.07-.11.24-.36.48-.73.73-1.09.03-.03.05-.05.06-.07.21-.3.44-.58.66-.87.05-.07.1-.14.16-.2.08-.11.18-.22.27-.33.21-.27.44-.54.66-.79.23-.28.47-.55.73-.81.06-.08.15-.17.23-.25.07-.08.16-.18.25-.26.17-.18.33-.34.51-.51.78-.76,1.59-1.48,2.44-2.14.32-.26.66-.51.99-.75.19-.13.37-.26.55-.39.79-.54,1.6-1.04,2.43-1.5.2-.11.41-.22.62-.33,1.9-1,3.93-1.81,6.04-2.39.19-.06.41-.11.61-.16.23-.07.46-.12.71-.17,1.19-.27,2.4-.46,3.64-.58.23-.03.47-.05.71-.07.74-.06,1.49-.08,2.25-.08h481.57c.75,0,1.5.03,2.25.08.21.02.42.04.63.06,1.26.12,2.51.32,3.72.59.23.05.46.1.7.17.17.04.34.08.52.13,2.15.58,4.21,1.39,6.14,2.41.21.1.42.21.62.33.43.23.84.47,1.24.73.19.11.38.23.57.36.2.12.39.25.58.39.54.36,1.07.75,1.58,1.16.23.18.45.35.66.54.34.27.67.57,1,.86.19.18.38.35.57.54.33.31.66.64.98.97,0,0,.03.02.04.04.64.67,1.24,1.37,1.82,2.1,0,.02.02.03.04.05.86,1.09,1.64,2.24,2.34,3.44.24.4.47.82.69,1.24.03.06.07.13.1.19.19.35.36.71.52,1.08.2.43.4.86.57,1.3.19.45.35.89.51,1.34.16.44.31.88.44,1.33,0,.02,0,.05.02.07.14.45.26.9.37,1.36.12.46.22.94.31,1.41.1.48.19.97.25,1.45.06.43.12.84.16,1.27,0,.06,0,.14.02.2.07.7.11,1.39.13,2.1,0,.26,0,.51,0,.77v649.45c0,.26,0,.51,0,.77-.02.71-.06,1.4-.13,2.1,0,.06-.02.14-.02.2-.04.43-.09.84-.16,1.27-.07.48-.15.97-.25,1.45-.08.47-.19.95-.31,1.41-.11.45-.23.91-.37,1.36,0,.03-.02.06-.02.07-.13.45-.28.89-.44,1.33-.16.45-.33.89-.51,1.34-.17.44-.36.87-.57,1.3-.16.36-.33.72-.52,1.08-.04.06-.07.13-.1.19-.21.42-.45.84-.69,1.23-.7,1.21-1.48,2.36-2.34,3.44-.02.02-.03.03-.04.05-.58.73-1.18,1.43-1.82,2.1,0,.02-.03.03-.04.04-.32.33-.64.67-.98.97-.19.19-.37.36-.57.54-.33.3-.66.59-1,.86-.21.19-.43.36-.66.54-.51.41-1.04.8-1.58,1.16-.19.14-.39.27-.58.39-.19.13-.38.25-.57.36-.41.26-.82.5-1.24.73-.2.12-.41.23-.62.33-1.93,1.02-3.98,1.84-6.14,2.41-.18.05-.35.09-.52.13-.23.06-.46.12-.7.17-1.22.28-2.46.47-3.72.59-.21.02-.42.04-.63.06-.74.06-1.49.08-2.25.08H30.35Z"/>
            <g>
              <path class="cls-11" d="m30.35,23.03h481.57c4.04,0,7.33,3.28,7.33,7.33v649.45c0,4.04-3.28,7.33-7.33,7.33H30.35c-4.04,0-7.33-3.28-7.33-7.33V30.35c0-4.04,3.28-7.33,7.33-7.33Z"/>
              <path class="cls-11" d="m30.35,687.59h481.57c4.3,0,7.79-3.49,7.79-7.79V30.35c0-4.3-3.49-7.79-7.79-7.79H30.35c-4.3,0-7.79,3.49-7.79,7.79v649.45c0,4.3,3.49,7.79,7.79,7.79Zm0-.46c-4.04,0-7.33-3.29-7.33-7.33V30.35c0-4.04,3.29-7.33,7.33-7.33h481.57c4.04,0,7.33,3.29,7.33,7.33v649.45c0,4.04-3.29,7.33-7.33,7.33H30.35Z"/>
            </g>
            <path class="cls-4" d="m30.35,707.08h481.57c15.05,0,27.29-12.24,27.29-27.29V30.35c0-15.05-12.24-27.29-27.29-27.29H30.35C15.3,3.06,3.06,15.3,3.06,30.35v649.45c0,15.05,12.24,27.29,27.29,27.29Zm0-19.5c-4.3,0-7.79-3.49-7.79-7.79V30.35c0-4.3,3.49-7.79,7.79-7.79h481.57c4.3,0,7.79,3.49,7.79,7.79v649.45c0,4.3-3.49,7.79-7.79,7.79H30.35Z"/>
          </g>
          <path class="cls-2" d="m541.96,28.95c-.02-.32-.04-.65-.07-.97,0-.17-.02-.32-.04-.49,0-.07-.02-.14-.02-.2-.05-.43-.1-.85-.16-1.27-.07-.49-.16-.97-.25-1.45-.09-.47-.19-.95-.31-1.41-.12-.45-.24-.91-.37-1.36,0-.03-.02-.06-.02-.07-.14-.45-.29-.89-.44-1.33-.16-.46-.33-.9-.51-1.34-.18-.44-.36-.87-.57-1.3-.17-.36-.34-.72-.52-1.08-.04-.07-.07-.13-.1-.19-.22-.42-.45-.84-.69-1.24-.71-1.21-1.49-2.36-2.34-3.44-.02-.02-.03-.03-.04-.05-.58-.72-1.19-1.43-1.82-2.1,0-.02-.03-.03-.04-.04-.32-.33-.64-.66-.98-.97-.19-.19-.37-.36-.57-.54-.33-.29-.66-.59-1-.86-.21-.19-.43-.36-.66-.54-.51-.4-1.04-.79-1.58-1.16-.19-.13-.39-.26-.58-.39-.19-.12-.38-.24-.57-.36-.41-.26-.82-.5-1.24-.73-.2-.11-.42-.22-.62-.33-1.93-1.02-3.98-1.84-6.14-2.41-.17-.05-.34-.09-.52-.13-.23-.07-.46-.12-.7-.17-1.22-.28-2.46-.47-3.72-.59-.21-.02-.42-.04-.63-.06-.74-.06-1.49-.08-2.25-.08H30.35c-.75,0-1.5.03-2.25.08-.23.02-.47.04-.71.07-1.24.12-2.45.32-3.64.58-.24.05-.47.1-.71.17-.2.05-.42.1-.61.16-2.12.58-4.14,1.38-6.04,2.39-.21.11-.42.22-.62.33-.84.46-1.64.97-2.43,1.5-.18.13-.36.26-.55.39-.33.24-.67.49-.99.75-.85.67-1.66,1.38-2.44,2.14-.18.17-.34.33-.51.51-.09.08-.18.18-.25.26-.08.08-.17.17-.23.25-.26.26-.5.53-.73.81-.22.25-.45.52-.66.79-.09.11-.19.22-.27.33-.06.07-.11.13-.16.2-.22.29-.45.58-.66.87,0,.03-.03.05-.06.07-.25.35-.49.72-.73,1.09-.02.04-.05.07-.07.11-.22.36-.45.72-.66,1.1-.24.4-.46.82-.69,1.24-.04.06-.07.13-.1.19-.18.35-.35.71-.52,1.08-.2.43-.39.86-.57,1.3-.19.44-.35.88-.51,1.34-.47,1.35-.85,2.74-1.13,4.17-.09.48-.18.96-.25,1.45-.06.42-.11.84-.16,1.27,0,.06,0,.14-.02.2-.03.21-.05.44-.05.66,0-.18.03-.35.05-.53.05-.45.1-.89.17-1.33.03-.21.07-.43.11-.63.04-.27.08-.53.14-.79.07-.4.17-.79.27-1.17.1-.42.21-.84.34-1.24.1-.34.21-.68.33-1.01.24-.71.51-1.42.83-2.1.08-.21.19-.43.29-.63.15-.32.31-.65.47-.97.02-.03.03-.06.05-.08.19-.36.39-.71.59-1.07,0-.02.02-.04.03-.05.15-.25.3-.5.45-.74.13-.21.27-.43.41-.63.03-.05.06-.09.1-.14.22-.33.46-.67.71-.99.23-.32.47-.63.73-.94.05-.07.1-.14.17-.19.23-.31.49-.6.77-.89.29-.32.59-.64.9-.95.26-.27.54-.54.83-.8.07-.07.15-.14.23-.21.29-.25.58-.5.88-.75.33-.29.68-.56,1.03-.81.28-.21.56-.42.84-.6.14-.11.29-.2.44-.31.18-.12.36-.24.56-.35.18-.12.35-.23.54-.33.36-.21.72-.43,1.1-.62.22-.12.45-.24.69-.35.54-.27,1.1-.53,1.66-.76.18-.07.36-.15.55-.22.28-.11.56-.21.84-.32.36-.13.73-.25,1.1-.36.37-.12.75-.22,1.13-.32.02,0,.04,0,.06,0,.42-.11.84-.21,1.25-.3.03,0,.05,0,.07,0,.32-.06.63-.13.95-.17,1.48-.26,2.99-.39,4.54-.39h487.14c.54,0,1.09.02,1.62.06.29,0,.58.03.85.06.24.02.48.05.72.08.12,0,.23.03.34.04.33.04.64.08.96.15.05,0,.08,0,.13.02.19.03.39.07.59.1.09.02.19.04.28.06.04,0,.06.02.1.02.29.06.57.12.85.19.12.03.24.06.36.09.4.1.8.21,1.19.33.39.12.78.24,1.15.38.02,0,.03,0,.05.02.2.06.38.13.57.21.03,0,.05.02.07.03.21.07.42.16.62.24.02,0,.03,0,.05.02.57.24,1.11.49,1.65.76.23.11.45.23.69.35.37.19.73.41,1.1.62.19.1.36.21.54.33.19.11.37.23.56.35.15.09.3.19.44.31.29.19.57.39.84.6.35.25.7.52,1.03.81.26.2.52.43.77.66.04.03.07.07.11.09.08.07.16.15.23.21.03.03.06.06.08.07.25.24.5.48.74.72.25.24.48.48.71.72,0,.02.03.04.05.06.1.1.2.21.3.33.21.22.41.45.59.69.07.07.13.15.19.23.25.31.5.61.73.94.19.23.35.46.51.71.02.02.04.05.06.07.13.19.26.37.38.56.2.32.42.64.61.97,0,.02.02.04.04.06.13.22.26.45.38.68.07.12.15.25.21.38.13.24.26.48.37.72.17.32.32.65.46.98.11.24.22.48.32.72.04.09.07.18.11.27.1.26.2.52.3.79.07.16.12.33.18.49,0,.04.03.06.04.1.1.3.19.59.29.9.1.32.2.64.27.97.02.05.03.08.04.13.03.11.06.22.08.33.08.31.15.62.21.94,0,.02,0,.03,0,.05.06.26.1.52.14.79.05.2.08.42.11.63.06.44.12.88.17,1.33.05.44.08.89.1,1.34Z"/>
          <path class="cls-8" d="m541.99,30.35c0-.47-.01-.94-.04-1.4.02.47.04.93.04,1.4Z"/>
          <path class="cls-7" d="m30.35,709.87h481.57c.75,0,1.5-.03,2.25-.08.21-.02.42-.04.63-.06,1.26-.12,2.51-.32,3.72-.59.23-.05.46-.1.7-.17.18-.04.35-.08.52-.13,2.15-.58,4.21-1.39,6.14-2.41.2-.11.42-.22.62-.33.43-.23.84-.47,1.24-.73.19-.12.38-.24.57-.36.2-.13.39-.26.58-.39.54-.37,1.07-.76,1.58-1.16.23-.18.45-.35.66-.54.34-.28.68-.58,1-.86.19-.18.38-.35.57-.54.33-.32.66-.64.98-.97,0,0,.03-.02.04-.04.63-.67,1.24-1.37,1.82-2.1,0-.02.02-.03.04-.05.85-1.09,1.63-2.24,2.34-3.44.24-.4.46-.82.69-1.23.03-.06.07-.13.1-.19.18-.35.35-.71.52-1.08.2-.43.39-.86.57-1.3.19-.44.35-.88.51-1.34.15-.44.3-.88.44-1.33,0-.02,0-.05.02-.07.13-.45.25-.9.37-1.36.11-.46.21-.94.31-1.41.09-.48.18-.96.25-1.45.06-.42.11-.84.16-1.27,0-.06,0-.14.02-.2.02-.17.03-.32.04-.49,0,.12-.03.24-.04.36-.04.45-.09.89-.17,1.33-.03.21-.07.43-.11.63-.04.27-.08.53-.14.79-.09.45-.19.88-.31,1.32-.09.37-.19.74-.31,1.1-.09.31-.19.6-.29.9-.19.57-.4,1.11-.62,1.65-.1.24-.21.48-.32.72-.14.33-.3.67-.46.98-.12.24-.24.48-.37.72-.06.13-.14.26-.21.38-.13.25-.27.49-.42.73-.19.33-.41.66-.61.97-.12.19-.25.37-.38.56-.18.27-.37.53-.57.78-.23.32-.47.63-.73.94-.06.08-.13.16-.19.23-.19.23-.38.46-.59.69-.09.12-.19.23-.3.33-.24.27-.48.53-.75.78-.26.27-.54.54-.83.8-.07.06-.15.14-.23.21-.29.25-.58.5-.88.75-.33.29-.68.56-1.03.81-.28.21-.56.42-.84.6-.14.11-.29.21-.44.31-.19.12-.37.24-.56.35-.18.12-.35.23-.54.33-.36.21-.72.43-1.1.62-.23.12-.45.24-.69.35-.54.27-1.09.52-1.65.76-.22.09-.45.18-.67.26-.22.09-.45.18-.69.26-.37.14-.76.26-1.15.38-.39.12-.79.23-1.19.33-.43.12-.87.21-1.32.31-.33.07-.66.13-.99.18-1.46.25-2.96.38-4.49.38H27.57c-1.55,0-3.06-.13-4.54-.39-.32-.04-.63-.1-.95-.17-.02,0-.04,0-.07,0-.42-.08-.84-.19-1.25-.3-.02,0-.04,0-.06,0-.38-.1-.76-.2-1.13-.32-.37-.11-.74-.23-1.1-.36-.29-.1-.57-.2-.84-.32-.19-.07-.37-.15-.55-.22-.57-.23-1.12-.49-1.66-.76-.23-.11-.46-.23-.69-.35-.37-.19-.73-.41-1.1-.62-.19-.1-.36-.21-.54-.33-.19-.11-.38-.23-.56-.35-.15-.1-.3-.19-.44-.31-.29-.19-.57-.39-.84-.6-.35-.25-.7-.52-1.03-.81-.3-.25-.59-.5-.88-.75-.08-.07-.16-.15-.23-.21-.29-.26-.57-.53-.83-.8-.31-.31-.61-.62-.9-.95-.28-.29-.54-.58-.77-.89-.07-.06-.12-.12-.17-.19-.26-.31-.5-.62-.73-.94-.24-.32-.48-.66-.71-.99-.04-.05-.07-.09-.1-.14-.14-.2-.28-.42-.41-.63-.16-.24-.31-.49-.45-.74,0,0-.02-.03-.03-.05-.2-.35-.4-.71-.59-1.07-.02-.03-.03-.06-.05-.08-.17-.32-.32-.64-.47-.97-.1-.2-.2-.42-.29-.63-.32-.68-.58-1.38-.83-2.1-.12-.33-.23-.67-.33-1.01-.13-.41-.24-.83-.34-1.24-.1-.38-.2-.77-.27-1.17-.06-.26-.1-.52-.14-.79-.05-.2-.08-.42-.11-.63-.07-.44-.12-.88-.17-1.33-.02-.18-.04-.35-.05-.53,0,.22.02.45.05.66,0,.06.02.14.02.2.05.43.1.85.16,1.27.07.49.16.97.25,1.45.28,1.43.66,2.82,1.13,4.17.16.45.32.9.51,1.34.18.44.36.87.57,1.3.17.36.34.72.52,1.08.04.06.07.13.1.19.22.42.45.84.69,1.23.21.37.44.73.66,1.1.03.04.06.07.07.11.24.36.48.73.73,1.09.03.03.05.05.06.07.21.3.44.58.66.87.05.07.1.14.16.2.08.11.18.22.27.33.21.27.44.54.66.79.23.28.47.55.73.81.06.08.15.17.23.25.07.08.16.18.25.26.17.18.33.34.51.51.78.76,1.59,1.48,2.44,2.14.32.26.66.51.99.75.19.13.37.26.55.39.79.54,1.6,1.04,2.43,1.5.2.11.41.22.62.33,1.9,1,3.93,1.81,6.04,2.39.19.06.41.11.61.16.23.06.46.12.71.17,1.19.27,2.4.46,3.64.58.23.03.47.05.71.06.74.06,1.49.08,2.25.08Z"/>
          <path class="cls-8" d="m541.99,679.8c0,.47-.01.94-.04,1.4.02-.46.04-.93.04-1.4Z"/>
          <path class="cls-9" d="m27.57,707.08h2.79c-15.05,0-27.29-12.24-27.29-27.29V30.35C3.06,15.3,15.3,3.06,30.35,3.06h-2.79c-1.55,0-3.06.13-4.54.39-.32.04-.63.1-.95.17-.02,0-.04,0-.07,0-.42.08-.84.19-1.25.3-.02,0-.04,0-.06,0-.38.1-.76.2-1.13.32-.37.11-.74.23-1.1.36-.29.1-.57.2-.84.32-.19.07-.37.15-.55.22-.57.23-1.12.49-1.66.76-.23.11-.46.23-.69.35-.37.19-.73.41-1.1.62-.19.1-.36.21-.54.33-.19.11-.38.23-.56.35-.15.09-.3.19-.44.31-.29.19-.57.39-.84.6-.35.26-.7.53-1.03.81-.3.25-.59.5-.88.75-.08.07-.16.15-.23.21-.28.26-.56.53-.83.8-.31.31-.61.62-.9.95-.27.29-.52.58-.77.89-.07.06-.12.12-.17.19-.25.31-.49.61-.73.94-.24.32-.48.66-.71.99-.04.05-.07.09-.1.14-.14.2-.28.42-.41.63-.16.24-.31.49-.45.74,0,0-.02.03-.03.05-.2.35-.4.71-.59,1.07-.02.03-.03.06-.05.08-.17.32-.32.64-.47.97-.1.2-.2.42-.29.63-.32.68-.58,1.38-.83,2.1-.12.33-.23.67-.33,1.01-.12.41-.24.83-.34,1.24-.1.38-.2.77-.27,1.17-.06.26-.1.52-.14.79-.05.2-.08.42-.11.63-.07.44-.12.88-.17,1.33-.02.18-.04.35-.05.53-.03.27-.05.54-.06.81-.03.46-.04.93-.04,1.4v649.45c0,.47,0,.94.04,1.4,0,.27.03.54.06.81,0,.18.03.35.05.53.05.45.1.89.17,1.33.03.21.07.43.11.63.04.27.08.53.14.79.07.4.17.79.27,1.17.1.42.22.84.34,1.24.1.34.21.68.33,1.01.24.71.51,1.42.83,2.1.08.21.19.43.29.63.15.32.31.65.47.97.02.03.03.06.05.08.19.36.39.71.59,1.07,0,.02.02.04.03.05.15.25.3.5.45.74.13.21.27.43.41.63.03.05.06.09.1.14.22.33.46.67.71.99.24.32.48.63.73.94.05.07.1.14.17.19.25.31.5.6.77.89.29.32.59.64.9.95.27.27.55.54.83.8.07.06.15.14.23.21.29.25.58.5.88.75.33.28.68.55,1.03.81.28.21.56.42.84.6.14.11.29.21.44.31.18.12.36.24.56.35.18.12.35.23.54.33.36.21.72.43,1.1.62.22.12.45.24.69.35.54.27,1.1.53,1.66.76.18.07.36.15.55.22.28.11.56.21.84.32.36.13.73.25,1.1.36.37.12.75.22,1.13.32.02,0,.04,0,.06,0,.42.11.84.21,1.25.3.03,0,.05,0,.07,0,.32.06.63.13.95.17,1.48.26,2.99.39,4.54.39Z"/>
          <path class="cls-12" d="m511.92,707.08h2.79c1.53,0,3.04-.13,4.49-.38.33-.05.67-.1.99-.18.45-.09.89-.19,1.32-.31.4-.1.8-.21,1.19-.33.39-.12.78-.24,1.15-.38.23-.08.46-.17.69-.26.22-.08.45-.17.67-.26.57-.24,1.11-.49,1.65-.76.23-.11.45-.23.69-.35.37-.19.73-.41,1.1-.62.19-.1.36-.21.54-.33.19-.11.37-.23.56-.35.15-.09.3-.19.44-.31.29-.19.57-.39.84-.6.35-.26.7-.53,1.03-.81.3-.25.59-.5.88-.75.08-.07.16-.15.23-.21.28-.26.56-.53.83-.8.25-.25.5-.51.75-.78.1-.1.2-.21.3-.33.2-.22.4-.45.59-.69.07-.07.13-.15.19-.23.25-.31.5-.61.73-.94.19-.25.38-.51.57-.78.13-.19.26-.37.38-.56.2-.32.42-.64.61-.97.15-.24.29-.48.42-.73.07-.12.15-.25.21-.38.13-.24.25-.48.37-.72.17-.32.32-.65.46-.98.11-.24.22-.48.32-.72.22-.54.43-1.09.62-1.65.1-.3.19-.59.29-.9.11-.35.21-.72.31-1.1.11-.44.21-.87.31-1.32.06-.26.1-.52.14-.79.05-.2.08-.42.11-.63.06-.44.12-.88.17-1.33,0-.12.03-.24.04-.36.03-.32.05-.65.07-.97,0-.21.02-.42.03-.63,0-.26,0-.51,0-.77V30.35c0-.26,0-.51,0-.77,0-.21-.02-.42-.03-.63-.02-.32-.04-.65-.07-.97,0-.12-.03-.24-.04-.36-.05-.45-.1-.89-.17-1.33-.03-.21-.07-.43-.11-.63-.04-.27-.08-.53-.14-.79,0-.02,0-.03,0-.05-.07-.32-.13-.63-.21-.94-.03-.11-.06-.22-.08-.33,0-.05-.02-.08-.04-.13-.07-.32-.17-.65-.27-.97-.09-.31-.19-.6-.29-.9,0-.04-.03-.07-.04-.1-.06-.17-.11-.33-.18-.49-.09-.27-.2-.53-.3-.79-.04-.09-.07-.18-.11-.27-.1-.24-.21-.48-.32-.72-.14-.33-.3-.67-.46-.98-.11-.24-.24-.48-.37-.72-.06-.13-.14-.26-.21-.38-.12-.23-.25-.45-.38-.68-.02-.02-.03-.04-.04-.06-.19-.33-.41-.66-.61-.97-.12-.19-.25-.37-.38-.56-.02-.03-.04-.06-.06-.07-.17-.24-.33-.48-.51-.71-.23-.33-.48-.63-.73-.94-.06-.08-.13-.16-.19-.23-.19-.23-.39-.46-.59-.69-.09-.12-.19-.23-.3-.33-.02-.02-.04-.04-.05-.06-.24-.25-.47-.49-.71-.72s-.49-.48-.74-.72c-.03-.02-.06-.05-.08-.07-.07-.07-.15-.14-.23-.21-.04-.03-.07-.06-.11-.09-.25-.22-.51-.44-.77-.66-.33-.28-.68-.55-1.03-.81-.28-.21-.56-.42-.84-.6-.14-.11-.29-.21-.44-.31-.19-.12-.37-.24-.56-.35-.18-.12-.35-.23-.54-.33-.36-.21-.72-.43-1.1-.62-.23-.12-.45-.24-.69-.35-.54-.27-1.09-.52-1.65-.76-.02,0-.03,0-.05-.02-.2-.08-.42-.17-.62-.24-.03,0-.05-.02-.07-.03-.19-.08-.37-.15-.57-.21-.02,0-.03,0-.05-.02-.37-.14-.76-.26-1.15-.38-.39-.12-.79-.23-1.19-.33-.12-.04-.24-.07-.36-.09-.29-.07-.57-.14-.85-.19-.04,0-.07,0-.1-.02-.09-.02-.19-.04-.28-.06-.2-.04-.39-.07-.59-.1-.05,0-.08,0-.13-.02-.32-.06-.63-.1-.96-.15-.11,0-.22-.03-.34-.04-.24-.04-.48-.06-.72-.08-.28-.03-.57-.05-.85-.06-.53-.04-1.08-.06-1.62-.06h-2.79c15.05,0,27.29,12.24,27.29,27.29v649.45c0,15.05-12.24,27.29-27.29,27.29Z"/>
        </g>
        <path class="cls-14" d="m30.35,23.03h481.57c4.04,0,7.33,3.28,7.33,7.33v649.45c0,4.04-3.28,7.33-7.33,7.33H30.35c-4.04,0-7.33-3.28-7.33-7.33V30.35c0-4.04,3.28-7.33,7.33-7.33Z"/>
      </g>
      <text class="cls-16" transform="translate(33.41 43.39)"><tspan x="0" y="0" xml:space="preserve">17:21    Авг 13 </tspan><tspan class="cls-18" x="67.28" y="0">В</tspan><tspan class="cls-17" x="74.27" y="0">т</tspan></text>
      <text class="cls-16" transform="translate(482.88 43.39)"><tspan x="0" y="0">80%</tspan></text>
      <g>
        <path class="cls-6" d="m443.8,33.97c2.32.01,4.23.76,5.85,2.22.18.16.29.39.41.61.04.08.01.21-.02.3-.24.6-.75.71-1.28.31-.39-.3-.77-.62-1.19-.88-1.27-.79-2.68-1.08-4.16-1-1.13.06-2.17.41-3.11,1.01-.43.28-.83.61-1.25.92-.32.24-.67.25-.98.02-.29-.21-.39-.67-.17-.95.16-.21.35-.4.55-.57,1.32-1.1,2.83-1.76,4.54-1.95.04,0,.09,0,.13-.01.27-.02.54-.03.69-.04Z"/>
        <path class="cls-6" d="m439.45,38.7c0-.18.11-.36.27-.51.92-.92,2.02-1.45,3.3-1.64,1.95-.29,3.63.28,5.07,1.6.23.21.36.45.29.77-.08.33-.3.52-.61.61-.09.02-.2.02-.28-.02-.19-.1-.39-.21-.56-.36-.89-.77-1.93-1.15-3.11-1.14-1.11.01-2.07.42-2.9,1.14-.18.16-.36.31-.62.35-.46.08-.89-.28-.87-.8Z"/>
        <path class="cls-6" d="m443.97,40.53c-.6,0-1.05.22-1.44.57-.2.18-.42.32-.71.3-.27-.02-.47-.14-.6-.37-.13-.25-.15-.51.02-.75.27-.38.63-.66,1.04-.88,1.37-.76,3.14-.39,4.15.64.38.39.41.86.07,1.18-.29.27-.67.28-1,.03-.16-.12-.31-.25-.47-.36-.35-.25-.67-.34-1.06-.35Z"/>
        <path class="cls-6" d="m443.92,43.39c-.52,0-.91-.36-.91-.87,0-.53.39-.93.91-.93.51,0,.92.41.92.92,0,.5-.4.88-.92.88Z"/>
      </g>
      <g>
        <rect class="cls-15" x="460.09" y="36.14" width="16.13" height="6.82" rx="1.6" ry="1.6"/>
        <rect class="cls-6" x="475.76" y="36.95" width="2.14" height="5.19" rx=".69" ry=".69"/>
        <rect class="cls-6" x="460.09" y="36.14" width="13.66" height="6.82" rx="1.6" ry="1.6"/>
      </g>
      <g>
        <circle class="cls-13" cx="271.14" cy="13.84" r="5.94"/>
        <circle class="cls-1" cx="271.14" cy="13.84" r="4.2"/>
        <circle class="cls-3" cx="271.14" cy="13.84" r="1.73"/>
        <path class="cls-10" d="m277.07,13.83c0,3.28-2.65,5.94-5.93,5.94-.13,0-.25,0-.38-.02,3.1-.19,5.54-2.77,5.54-5.92s-2.44-5.72-5.54-5.91c.13-.02.25-.02.38-.02,3.28,0,5.93,2.66,5.93,5.93Z"/>
      </g>
    </g>
  </g>
</svg>